<?xml version="1.0" encoding="UTF-8" standalone="no"?>
<svg
   xmlns:dc="http://purl.org/dc/elements/1.1/"
   xmlns:cc="http://creativecommons.org/ns#"
   xmlns:rdf="http://www.w3.org/1999/02/22-rdf-syntax-ns#"
   xmlns:svg="http://www.w3.org/2000/svg"
   xmlns="http://www.w3.org/2000/svg"
   xmlns:sodipodi="http://sodipodi.sourceforge.net/DTD/sodipodi-0.dtd"
   xmlns:inkscape="http://www.inkscape.org/namespaces/inkscape"
   enable-background="new 0 0 580 580"
   height="580"
   viewBox="0 0 580 580"
   width="580"
   version="1.1"
   id="svg921"
   sodipodi:docname="landuse_grass.svg"
   inkscape:version="0.92.5 (2060ec1f9f, 2020-04-08)">
  <metadata
     id="metadata927">
    <rdf:RDF>
      <cc:Work
         rdf:about="">
        <dc:format>image/svg+xml</dc:format>
        <dc:type
           rdf:resource="http://purl.org/dc/dcmitype/StillImage" />
      </cc:Work>
    </rdf:RDF>
  </metadata>
  <defs
     id="defs925" />
  <sodipodi:namedview
     pagecolor="#ffffff"
     bordercolor="#666666"
     borderopacity="1"
     objecttolerance="10"
     gridtolerance="10"
     guidetolerance="10"
     inkscape:pageopacity="0"
     inkscape:pageshadow="2"
     inkscape:window-width="1868"
     inkscape:window-height="1009"
     id="namedview923"
     showgrid="false"
     inkscape:zoom="1.4068966"
     inkscape:cx="290"
     inkscape:cy="290"
     inkscape:window-x="0"
     inkscape:window-y="34"
     inkscape:window-maximized="1"
     inkscape:current-layer="svg921"
     showguides="true"
     inkscape:guide-bbox="true" />
  <path
     d="m 100.69089,194.18122 c -0.01,0 -0.021,0 -0.031,0 -4.286005,0 -7.769005,3.466 -7.786005,7.756 l -0.33,83.398 c -0.017,4.3 3.456,7.801 7.756005,7.817 0.01,0 0.021,0 0.031,0 4.286,0 7.769,-3.466 7.786,-7.756 l 0.33,-83.398 c 0.017,-4.3 -3.455,-7.8 -7.756,-7.817 z"
     id="path891"
     style="fill:#abc837;fill-opacity:1;stroke:#b0d748;stroke-width:7.04881907;stroke-miterlimit:4;stroke-dasharray:none;stroke-opacity:1"
     inkscape:connector-curvature="0" />
  <path
     d="m 119.93489,292.47722 c 1.099,0.536 2.263,0.79 3.408,0.79 2.884,0 5.655,-1.608 7.004,-4.375 l 26.371,-54.06 c 1.885,-3.865 0.28,-8.527 -3.584,-10.413 -3.866,-1.886 -8.527,-0.28 -10.413,3.584 l -26.371,54.06 c -1.885,3.867 -0.28,8.529 3.585,10.414 z"
     id="path893"
     style="fill:#abc837;fill-opacity:1;stroke:#b0d748;stroke-width:7.04881907;stroke-miterlimit:4;stroke-dasharray:none;stroke-opacity:1"
     inkscape:connector-curvature="0" />
  <path
     d="m 177.17889,246.95222 -32.304,32.963 c -3.01,3.071 -2.96,8.001 0.111,11.011 1.516,1.485 3.483,2.226 5.45,2.226 2.019,0 4.037,-0.78 5.562,-2.337 l 32.304,-32.963 c 3.01,-3.071 2.96,-8.001 -0.111,-11.012 -3.072,-3.009 -8.003,-2.959 -11.012,0.112 z"
     id="path895"
     style="fill:#abc837;fill-opacity:1;stroke:#b0d748;stroke-width:7.04881907;stroke-miterlimit:4;stroke-dasharray:none;stroke-opacity:1"
     inkscape:connector-curvature="0" />
  <path
     d="m 62.585885,226.19822 c -1.609,-3.989 -6.147,-5.917 -10.134,-4.307 -3.988,1.609 -5.917,6.146 -4.307,10.134 l 22.745,56.368 c 1.224,3.033 4.142,4.875 7.223,4.875 0.97,0 1.957,-0.183 2.911,-0.567 3.988,-1.609 5.917,-6.147 4.307,-10.135 z"
     id="path897"
     style="fill:#abc837;fill-opacity:1;stroke:#b0d748;stroke-width:7.04881907;stroke-miterlimit:4;stroke-dasharray:none;stroke-opacity:1"
     inkscape:connector-curvature="0" />
  <path
     d="m 24.554885,247.88522 c -3.041,-3.041 -7.971,-3.041 -11.012,0 -3.041,3.041 -3.041,7.971 0,11.012 l 31.975,31.975 c 1.521,1.521 3.513,2.28 5.506,2.28 1.993,0 3.985,-0.76 5.506,-2.28 3.041,-3.041 3.041,-7.972 0,-11.012 z"
     id="path899"
     style="fill:#abc837;fill-opacity:1;stroke:#b0d748;stroke-width:7.04881907;stroke-miterlimit:4;stroke-dasharray:none;stroke-opacity:1"
     inkscape:connector-curvature="0" />
  <path
     d="m 300.69189,98.181216 c -0.011,0 -0.021,0 -0.032,0 -4.286,0 -7.769,3.466004 -7.785,7.756004 l -0.33,83.398 c -0.018,4.3 3.455,7.8 7.755,7.817 0.011,0 0.021,0 0.032,0 4.286,0 7.769,-3.466 7.785,-7.756 l 0.33,-83.398 c 0.018,-4.3 -3.455,-7.800004 -7.755,-7.817004 z"
     id="path901"
     style="fill:#abc837;fill-opacity:1;stroke:#b0d748;stroke-width:7.04881907;stroke-miterlimit:4;stroke-dasharray:none;stroke-opacity:1"
     inkscape:connector-curvature="0" />
  <path
     d="m 353.13389,128.42022 c -3.867,-1.887 -8.527,-0.279 -10.412,3.585 l -26.37,54.06 c -1.886,3.865 -0.281,8.526 3.584,10.412 1.1,0.536 2.263,0.79 3.408,0.79 2.884,0 5.655,-1.609 7.004,-4.375 l 26.37,-54.06 c 1.885,-3.864 0.281,-8.526 -3.584,-10.412 z"
     id="path903"
     style="fill:#abc837;fill-opacity:1;stroke:#b0d748;stroke-width:7.04881907;stroke-miterlimit:4;stroke-dasharray:none;stroke-opacity:1"
     inkscape:connector-curvature="0" />
  <path
     d="m 388.18989,150.84122 c -3.072,-3.011 -8.002,-2.959 -11.012,0.111 l -32.305,32.963 c -3.01,3.071 -2.96,8.001 0.111,11.011 1.516,1.485 3.483,2.226 5.449,2.226 2.02,0 4.037,-0.781 5.563,-2.336 l 32.305,-32.963 c 3.01,-3.072 2.961,-8.002 -0.111,-11.012 z"
     id="path905"
     style="fill:#abc837;fill-opacity:1;stroke:#b0d748;stroke-width:7.04881907;stroke-miterlimit:4;stroke-dasharray:none;stroke-opacity:1"
     inkscape:connector-curvature="0" />
  <path
     d="m 270.88989,192.39322 c 1.224,3.034 4.142,4.875 7.224,4.875 0.97,0 1.956,-0.183 2.911,-0.568 3.987,-1.609 5.916,-6.146 4.307,-10.134 l -22.745,-56.368 c -1.609,-3.988 -6.145,-5.917 -10.135,-4.307 -3.987,1.609 -5.916,6.146 -4.307,10.134 z"
     id="path907"
     style="fill:#abc837;fill-opacity:1;stroke:#b0d748;stroke-width:7.04881907;stroke-miterlimit:4;stroke-dasharray:none;stroke-opacity:1"
     inkscape:connector-curvature="0" />
  <path
     d="m 251.02289,197.15222 c 1.993,0 3.985,-0.76 5.506,-2.281 3.041,-3.041 3.041,-7.971 0,-11.012 l -31.975,-31.975 c -3.041,-3.041 -7.971,-3.041 -11.012,0 -3.041,3.041 -3.041,7.971 0,11.012 l 31.975,31.975 c 1.521,1.521 3.513,2.281 5.506,2.281 z"
     id="path909"
     style="fill:#abc837;fill-opacity:1;stroke:#b0d748;stroke-width:7.04881907;stroke-miterlimit:4;stroke-dasharray:none;stroke-opacity:1"
     inkscape:connector-curvature="0" />
  <path
     d="m 204.69089,344.18222 c -0.01,0 -0.021,-10e-4 -0.031,-10e-4 -4.286,0 -7.769,3.467 -7.786,7.756 l -0.33,83.398 c -0.017,4.301 3.456,7.801 7.756,7.817 0.01,0 0.021,10e-4 0.031,10e-4 4.287,0 7.769,-3.467 7.786,-7.756 l 0.33,-83.398 c 0.017,-4.301 -3.455,-7.801 -7.756,-7.817 z"
     id="path911"
     style="fill:#abc837;fill-opacity:1;stroke:#b0d748;stroke-width:7.04881907;stroke-miterlimit:4;stroke-dasharray:none;stroke-opacity:1"
     inkscape:connector-curvature="0" />
  <path
     d="m 257.13389,374.42122 c -3.868,-1.886 -8.528,-0.28 -10.412,3.584 l -26.37,54.06 c -1.886,3.865 -0.281,8.527 3.584,10.412 1.1,0.536 2.263,0.79 3.408,0.79 2.884,0 5.655,-1.608 7.004,-4.374 l 26.37,-54.06 c 1.885,-3.865 0.281,-8.527 -3.584,-10.412 z"
     id="path913"
     style="fill:#abc837;fill-opacity:1;stroke:#b0d748;stroke-width:7.04881907;stroke-miterlimit:4;stroke-dasharray:none;stroke-opacity:1"
     inkscape:connector-curvature="0" />
  <path
     d="m 281.17889,396.95222 -32.305,32.964 c -3.01,3.071 -2.96,8.002 0.111,11.012 1.516,1.485 3.483,2.226 5.449,2.226 2.02,0 4.037,-0.781 5.563,-2.337 l 32.305,-32.964 c 3.01,-3.071 2.96,-8.002 -0.111,-11.012 -3.073,-3.011 -8.003,-2.959 -11.012,0.111 z"
     id="path915"
     style="fill:#abc837;fill-opacity:1;stroke:#b0d748;stroke-width:7.04881907;stroke-miterlimit:4;stroke-dasharray:none;stroke-opacity:1"
     inkscape:connector-curvature="0" />
  <path
     d="m 166.58589,376.19722 c -1.609,-3.988 -6.147,-5.918 -10.134,-4.307 -3.988,1.609 -5.917,6.146 -4.307,10.135 l 22.745,56.367 c 1.224,3.033 4.142,4.875 7.223,4.875 0.97,0 1.957,-0.183 2.911,-0.568 3.988,-1.609 5.917,-6.146 4.307,-10.135 z"
     id="path917"
     style="fill:#abc837;fill-opacity:1;stroke:#b0d748;stroke-width:7.04881907;stroke-miterlimit:4;stroke-dasharray:none;stroke-opacity:1"
     inkscape:connector-curvature="0" />
  <path
     d="m 128.55489,397.88522 c -3.041,-3.041 -7.972,-3.042 -11.012,0 -3.041,3.041 -3.041,7.971 0,11.012 l 31.975,31.976 c 1.521,1.521 3.513,2.281 5.506,2.281 1.993,0 3.986,-0.761 5.506,-2.281 3.041,-3.041 3.041,-7.971 0,-11.012 z"
     id="path919"
     style="fill:#abc837;fill-opacity:1;stroke:#b0d748;stroke-width:7.04881907;stroke-miterlimit:4;stroke-dasharray:none;stroke-opacity:1"
     inkscape:connector-curvature="0" />
  <path
     inkscape:connector-curvature="0"
     d="m 101.43833,472.88298 c -0.01,0 -0.021,0 -0.031,0 -4.286005,0 -7.769005,3.466 -7.786005,7.756 l -0.33,83.398 c -0.017,4.3 3.456,7.801 7.756005,7.817 0.01,0 0.021,0 0.031,0 4.286,0 7.769,-3.466 7.786,-7.756 l 0.33,-83.398 c 0.017,-4.3 -3.455,-7.8 -7.756,-7.817 z"
     id="path891-3"
     style="fill:#abc837;fill-opacity:1;stroke:#b0d748;stroke-width:7.04881907;stroke-miterlimit:4;stroke-dasharray:none;stroke-opacity:1" />
  <path
     inkscape:connector-curvature="0"
     d="m 120.68232,571.17898 c 1.099,0.536 2.263,0.79 3.408,0.79 2.884,0 5.655,-1.608 7.004,-4.375 l 26.371,-54.06 c 1.885,-3.865 0.28,-8.527 -3.584,-10.413 -3.866,-1.886 -8.527,-0.28 -10.413,3.584 l -26.37099,54.06 c -1.885,3.867 -0.28,8.529 3.58499,10.414 z"
     id="path893-6"
     style="fill:#abc837;fill-opacity:1;stroke:#b0d748;stroke-width:7.04881907;stroke-miterlimit:4;stroke-dasharray:none;stroke-opacity:1" />
  <path
     inkscape:connector-curvature="0"
     d="m 177.92632,525.65398 -32.304,32.963 c -3.01,3.071 -2.96,8.001 0.111,11.011 1.516,1.485 3.483,2.226 5.45,2.226 2.019,0 4.037,-0.78 5.562,-2.337 l 32.304,-32.963 c 3.01,-3.071 2.96,-8.001 -0.111,-11.012 -3.072,-3.009 -8.003,-2.959 -11.012,0.112 z"
     id="path895-7"
     style="fill:#abc837;fill-opacity:1;stroke:#b0d748;stroke-width:7.04881907;stroke-miterlimit:4;stroke-dasharray:none;stroke-opacity:1" />
  <path
     inkscape:connector-curvature="0"
     d="m 63.333325,504.89998 c -1.609,-3.989 -6.147,-5.917 -10.134,-4.307 -3.988,1.609 -5.917,6.146 -4.307,10.134 l 22.745,56.368 c 1.224,3.033 4.142,4.875 7.223,4.875 0.97,0 1.957,-0.183 2.911,-0.567 3.988,-1.609 5.917,-6.147 4.307,-10.135 z"
     id="path897-5"
     style="fill:#abc837;fill-opacity:1;stroke:#b0d748;stroke-width:7.04881907;stroke-miterlimit:4;stroke-dasharray:none;stroke-opacity:1" />
  <path
     inkscape:connector-curvature="0"
     d="m 25.302325,526.58698 c -3.041,-3.041 -7.971,-3.041 -11.012002,0 -3.041,3.041 -3.041,7.971 0,11.012 l 31.975002,31.975 c 1.521,1.521 3.513,2.28 5.506,2.28 1.993,0 3.985,-0.76 5.506,-2.28 3.041,-3.041 3.041,-7.972 0,-11.012 z"
     id="path899-3"
     style="fill:#abc837;fill-opacity:1;stroke:#b0d748;stroke-width:7.04881907;stroke-miterlimit:4;stroke-dasharray:none;stroke-opacity:1" />
  <path
     inkscape:connector-curvature="0"
     d="m 96.462835,8.7408316 c -0.01,0 -0.021,0 -0.031,0 -4.286,0 -7.769,3.4660004 -7.786,7.7560004 l -0.33,83.398004 c -0.017,4.300004 3.456,7.801004 7.756,7.817004 0.01,0 0.021,0 0.031,0 4.286005,0 7.769005,-3.466 7.786005,-7.756004 l 0.33,-83.398004 c 0.017,-4.3 -3.455,-7.8000004 -7.756005,-7.8170004 z"
     id="path891-5"
     style="fill:#abc837;fill-opacity:1;stroke:#b0d748;stroke-width:7.04881907;stroke-miterlimit:4;stroke-dasharray:none;stroke-opacity:1" />
  <path
     inkscape:connector-curvature="0"
     d="m 115.70684,107.03684 c 1.099,0.536 2.263,0.79 3.408,0.79 2.884,0 5.655,-1.608 7.004,-4.375 l 26.371,-54.060008 c 1.885,-3.865 0.28,-8.527 -3.584,-10.413 -3.866,-1.886 -8.527,-0.28 -10.413,3.584 l -26.371,54.060004 c -1.885,3.867004 -0.28,8.529004 3.585,10.414004 z"
     id="path893-62"
     style="fill:#abc837;fill-opacity:1;stroke:#b0d748;stroke-width:7.04881907;stroke-miterlimit:4;stroke-dasharray:none;stroke-opacity:1" />
  <path
     inkscape:connector-curvature="0"
     d="m 172.95084,61.511832 -32.304,32.963004 c -3.01,3.071 -2.96,8.001004 0.111,11.011004 1.516,1.485 3.483,2.226 5.45,2.226 2.019,0 4.037,-0.78 5.562,-2.337 l 32.304,-32.963008 c 3.01,-3.071 2.96,-8.001 -0.111,-11.012 -3.072,-3.009 -8.003,-2.959 -11.012,0.112 z"
     id="path895-9"
     style="fill:#abc837;fill-opacity:1;stroke:#b0d748;stroke-width:7.04881907;stroke-miterlimit:4;stroke-dasharray:none;stroke-opacity:1" />
  <path
     inkscape:connector-curvature="0"
     d="m 58.357835,40.757832 c -1.609,-3.989 -6.147,-5.917 -10.134,-4.307 -3.988,1.609 -5.917,6.146 -4.307,10.134 l 22.745,56.368008 c 1.224,3.033 4.142,4.875 7.223,4.875 0.97,0 1.957,-0.183 2.911,-0.567 3.988,-1.609 5.917,-6.147 4.307,-10.135004 z"
     id="path897-1"
     style="fill:#abc837;fill-opacity:1;stroke:#b0d748;stroke-width:7.04881907;stroke-miterlimit:4;stroke-dasharray:none;stroke-opacity:1" />
  <path
     inkscape:connector-curvature="0"
     d="m 20.326835,62.444832 c -3.041,-3.041 -7.971002,-3.041 -11.0120017,0 -3.041,3.041 -3.041,7.971 0,11.012 L 41.289835,105.43184 c 1.521,1.521 3.513,2.28 5.506,2.28 1.993,0 3.985,-0.76 5.506,-2.28 3.041,-3.041 3.041,-7.972004 0,-11.012004 z"
     id="path899-2"
     style="fill:#abc837;fill-opacity:1;stroke:#b0d748;stroke-width:7.04881907;stroke-miterlimit:4;stroke-dasharray:none;stroke-opacity:1" />
  <path
     d="m 435.50882,229.08396 c -0.011,0 -0.021,0 -0.032,0 -4.286,0 -7.769,3.46601 -7.785,7.75601 l -0.33,83.398 c -0.018,4.3 3.455,7.79999 7.755,7.81699 0.011,0 0.021,0 0.032,0 4.286,0 7.769,-3.46599 7.785,-7.75599 l 0.33,-83.398 c 0.018,-4.3 -3.455,-7.80001 -7.755,-7.81701 z"
     id="path901-7"
     style="fill:#abc837;fill-opacity:1;stroke:#b0d748;stroke-width:7.04881907;stroke-miterlimit:4;stroke-dasharray:none;stroke-opacity:1"
     inkscape:connector-curvature="0" />
  <path
     d="m 487.95082,259.32297 c -3.867,-1.887 -8.527,-0.279 -10.412,3.585 l -26.37,54.06 c -1.886,3.865 -0.281,8.526 3.584,10.41199 1.1,0.536 2.263,0.79 3.408,0.79 2.884,0 5.655,-1.609 7.004,-4.37499 l 26.37,-54.06 c 1.885,-3.864 0.281,-8.526 -3.584,-10.412 z"
     id="path903-0"
     style="fill:#abc837;fill-opacity:1;stroke:#b0d748;stroke-width:7.04881907;stroke-miterlimit:4;stroke-dasharray:none;stroke-opacity:1"
     inkscape:connector-curvature="0" />
  <path
     d="m 523.00682,281.74397 c -3.072,-3.011 -8.002,-2.959 -11.012,0.111 l -32.305,32.963 c -3.01,3.071 -2.96,8.001 0.111,11.01099 1.516,1.485 3.483,2.226 5.449,2.226 2.02,0 4.037,-0.781 5.563,-2.336 l 32.305,-32.96299 c 3.01,-3.072 2.961,-8.002 -0.111,-11.012 z"
     id="path905-9"
     style="fill:#abc837;fill-opacity:1;stroke:#b0d748;stroke-width:7.04881907;stroke-miterlimit:4;stroke-dasharray:none;stroke-opacity:1"
     inkscape:connector-curvature="0" />
  <path
     d="m 405.70682,323.29597 c 1.224,3.03399 4.142,4.87499 7.224,4.87499 0.97,0 1.956,-0.183 2.911,-0.568 3.987,-1.609 5.916,-6.14599 4.307,-10.13399 l -22.745,-56.368 c -1.609,-3.988 -6.145,-5.917 -10.135,-4.307 -3.987,1.609 -5.916,6.146 -4.307,10.134 z"
     id="path907-3"
     style="fill:#abc837;fill-opacity:1;stroke:#b0d748;stroke-width:7.04881907;stroke-miterlimit:4;stroke-dasharray:none;stroke-opacity:1"
     inkscape:connector-curvature="0" />
  <path
     d="m 385.83982,328.05496 c 1.993,0 3.985,-0.76 5.506,-2.281 3.041,-3.04099 3.041,-7.97099 0,-11.01199 l -31.975,-31.975 c -3.041,-3.041 -7.971,-3.041 -11.012,0 -3.041,3.041 -3.041,7.971 0,11.012 l 31.975,31.97499 c 1.521,1.521 3.513,2.281 5.506,2.281 z"
     id="path909-6"
     style="fill:#abc837;fill-opacity:1;stroke:#b0d748;stroke-width:7.04881907;stroke-miterlimit:4;stroke-dasharray:none;stroke-opacity:1"
     inkscape:connector-curvature="0" />
  <path
     d="m 473.89117,15.13789 c -0.011,0 -0.021,0 -0.032,0 -4.286,0 -7.769,3.466004 -7.785,7.756005 l -0.33,83.397995 c -0.018,4.3 3.455,7.8 7.755,7.817 0.011,0 0.021,0 0.032,0 4.286,0 7.769,-3.466 7.785,-7.756 l 0.33,-83.397995 c 0.018,-4.300001 -3.455,-7.800005 -7.755,-7.817005 z"
     id="path901-0"
     style="fill:#abc837;fill-opacity:1;stroke:#b0d748;stroke-width:7.04881907;stroke-miterlimit:4;stroke-dasharray:none;stroke-opacity:1"
     inkscape:connector-curvature="0" />
  <path
     d="m 526.33317,45.37689 c -3.867,-1.887 -8.527,-0.279 -10.412,3.585 l -26.37,54.06 c -1.886,3.865 -0.281,8.526 3.584,10.412 1.1,0.536 2.263,0.79 3.408,0.79 2.884,0 5.655,-1.609 7.004,-4.375 l 26.37,-54.06 c 1.885,-3.864 0.281,-8.526 -3.584,-10.412 z"
     id="path903-6"
     style="fill:#abc837;fill-opacity:1;stroke:#b0d748;stroke-width:7.04881907;stroke-miterlimit:4;stroke-dasharray:none;stroke-opacity:1"
     inkscape:connector-curvature="0" />
  <path
     d="m 561.38917,67.79789 c -3.072,-3.011 -8.002,-2.959 -11.012,0.111 l -32.305,32.963 c -3.01,3.071 -2.96,8.001 0.111,11.011 1.516,1.485 3.483,2.226 5.449,2.226 2.02,0 4.037,-0.781 5.563,-2.336 l 32.305,-32.963 c 3.01,-3.072 2.961,-8.002 -0.111,-11.012 z"
     id="path905-2"
     style="fill:#abc837;fill-opacity:1;stroke:#b0d748;stroke-width:7.04881907;stroke-miterlimit:4;stroke-dasharray:none;stroke-opacity:1"
     inkscape:connector-curvature="0" />
  <path
     d="m 444.08917,109.34989 c 1.224,3.034 4.142,4.875 7.224,4.875 0.97,0 1.956,-0.183 2.911,-0.568 3.987,-1.609 5.916,-6.146 4.307,-10.134 l -22.745,-56.368 c -1.609,-3.988 -6.145,-5.917 -10.135,-4.307 -3.987,1.609 -5.916,6.146 -4.307,10.134 z"
     id="path907-6"
     style="fill:#abc837;fill-opacity:1;stroke:#b0d748;stroke-width:7.04881907;stroke-miterlimit:4;stroke-dasharray:none;stroke-opacity:1"
     inkscape:connector-curvature="0" />
  <path
     d="m 424.22217,114.10889 c 1.993,0 3.985,-0.76 5.506,-2.281 3.041,-3.041 3.041,-7.971 0,-11.012 l -31.975,-31.975 c -3.041,-3.041 -7.971,-3.041 -11.012,0 -3.041,3.041 -3.041,7.971 0,11.012 l 31.975,31.975 c 1.521,1.521 3.513,2.281 5.506,2.281 z"
     id="path909-1"
     style="fill:#abc837;fill-opacity:1;stroke:#b0d748;stroke-width:7.04881907;stroke-miterlimit:4;stroke-dasharray:none;stroke-opacity:1"
     inkscape:connector-curvature="0" />
  <path
     d="m 439.06274,428.10356 c -0.011,0 -0.021,0 -0.032,0 -4.286,0 -7.769,3.46601 -7.785,7.75601 l -0.33,83.398 c -0.018,4.3 3.455,7.79999 7.755,7.81699 0.011,0 0.021,0 0.032,0 4.286,0 7.769,-3.46599 7.785,-7.75599 l 0.33,-83.398 c 0.018,-4.3 -3.455,-7.80001 -7.755,-7.81701 z"
     id="path901-8"
     style="fill:#abc837;fill-opacity:1;stroke:#b0d748;stroke-width:7.04881907;stroke-miterlimit:4;stroke-dasharray:none;stroke-opacity:1"
     inkscape:connector-curvature="0" />
  <path
     d="m 491.50474,458.34257 c -3.867,-1.887 -8.527,-0.279 -10.412,3.585 l -26.37,54.06 c -1.886,3.865 -0.281,8.526 3.584,10.41199 1.1,0.536 2.263,0.79 3.408,0.79 2.884,0 5.655,-1.609 7.004,-4.37499 l 26.37,-54.06 c 1.885,-3.864 0.281,-8.526 -3.584,-10.412 z"
     id="path903-7"
     style="fill:#abc837;fill-opacity:1;stroke:#b0d748;stroke-width:7.04881907;stroke-miterlimit:4;stroke-dasharray:none;stroke-opacity:1"
     inkscape:connector-curvature="0" />
  <path
     d="m 526.56074,480.76357 c -3.072,-3.011 -8.002,-2.959 -11.012,0.111 l -32.305,32.963 c -3.01,3.071 -2.96,8.001 0.111,11.01099 1.516,1.485 3.483,2.226 5.449,2.226 2.02,0 4.037,-0.781 5.563,-2.336 l 32.305,-32.96299 c 3.01,-3.072 2.961,-8.002 -0.111,-11.012 z"
     id="path905-92"
     style="fill:#abc837;fill-opacity:1;stroke:#b0d748;stroke-width:7.04881907;stroke-miterlimit:4;stroke-dasharray:none;stroke-opacity:1"
     inkscape:connector-curvature="0" />
  <path
     d="m 409.26074,522.31557 c 1.224,3.03399 4.142,4.87499 7.224,4.87499 0.97,0 1.956,-0.183 2.911,-0.568 3.987,-1.609 5.916,-6.14599 4.307,-10.13399 l -22.745,-56.368 c -1.609,-3.988 -6.145,-5.917 -10.135,-4.307 -3.987,1.609 -5.916,6.146 -4.307,10.134 z"
     id="path907-0"
     style="fill:#abc837;fill-opacity:1;stroke:#b0d748;stroke-width:7.04881907;stroke-miterlimit:4;stroke-dasharray:none;stroke-opacity:1"
     inkscape:connector-curvature="0" />
  <path
     d="m 389.39374,527.07456 c 1.993,0 3.985,-0.76 5.506,-2.281 3.041,-3.04099 3.041,-7.97099 0,-11.01199 l -31.975,-31.975 c -3.041,-3.041 -7.971,-3.041 -11.012,0 -3.041,3.041 -3.041,7.971 0,11.012 l 31.975,31.97499 c 1.521,1.521 3.513,2.281 5.506,2.281 z"
     id="path909-2"
     style="fill:#abc837;fill-opacity:1;stroke:#b0d748;stroke-width:7.04881907;stroke-miterlimit:4;stroke-dasharray:none;stroke-opacity:1"
     inkscape:connector-curvature="0" />
</svg>
