<?xml version="1.0" encoding="UTF-8" standalone="no"?>
<svg
   xmlns:dc="http://purl.org/dc/elements/1.1/"
   xmlns:cc="http://creativecommons.org/ns#"
   xmlns:rdf="http://www.w3.org/1999/02/22-rdf-syntax-ns#"
   xmlns:svg="http://www.w3.org/2000/svg"
   xmlns="http://www.w3.org/2000/svg"
   xmlns:sodipodi="http://sodipodi.sourceforge.net/DTD/sodipodi-0.dtd"
   xmlns:inkscape="http://www.inkscape.org/namespaces/inkscape"
   enable-background="new 0 0 580 580"
   height="580"
   viewBox="0 0 580 580"
   width="580"
   version="1.1"
   id="svg921"
   sodipodi:docname="landuse_grass.svg"
   inkscape:version="0.92.5 (2060ec1f9f, 2020-04-08)">
  <metadata
     id="metadata927">
    <rdf:RDF>
      <cc:Work
         rdf:about="">
        <dc:format>image/svg+xml</dc:format>
        <dc:type
           rdf:resource="http://purl.org/dc/dcmitype/StillImage" />
      </cc:Work>
    </rdf:RDF>
  </metadata>
  <defs
     id="defs925" />
  <sodipodi:namedview
     pagecolor="#ffffff"
     bordercolor="#666666"
     borderopacity="1"
     objecttolerance="10"
     gridtolerance="10"
     guidetolerance="10"
     inkscape:pageopacity="0"
     inkscape:pageshadow="2"
     inkscape:window-width="1868"
     inkscape:window-height="1009"
     id="namedview923"
     showgrid="false"
     inkscape:zoom="1.4068966"
     inkscape:cx="290"
     inkscape:cy="289.99999"
     inkscape:window-x="0"
     inkscape:window-y="34"
     inkscape:window-maximized="1"
     inkscape:current-layer="svg921"
     showguides="false"
     inkscape:guide-bbox="true" />
  <path
     d="m 97.847751,192.04886 c -0.01,0 -0.021,0 -0.031,0 -4.286,0 -7.769,3.466 -7.786,7.756 l -0.33,83.398 c -0.017,4.3 3.456,7.801 7.756,7.817 0.01,0 0.021,0 0.031,0 4.285999,0 7.768999,-3.466 7.785999,-7.756 l 0.33,-83.398 c 0.017,-4.3 -3.455,-7.8 -7.755999,-7.817 z"
     id="path891"
     style="fill:#abc837;fill-opacity:1;stroke:#a7cf3b;stroke-width:13.47401575;stroke-miterlimit:4;stroke-dasharray:none;stroke-opacity:1"
     inkscape:connector-curvature="0" />
  <path
     d="m 117.09175,290.34486 c 1.099,0.536 2.263,0.79 3.408,0.79 2.884,0 5.655,-1.608 7.004,-4.375 l 26.371,-54.06 c 1.885,-3.865 0.28,-8.527 -3.584,-10.413 -3.866,-1.886 -8.527,-0.28 -10.413,3.584 l -26.371,54.06 c -1.885,3.867 -0.28,8.529 3.585,10.414 z"
     id="path893"
     style="fill:#abc837;fill-opacity:1;stroke:#a7cf3b;stroke-width:13.47401575;stroke-miterlimit:4;stroke-dasharray:none;stroke-opacity:1"
     inkscape:connector-curvature="0" />
  <path
     d="m 174.33575,244.81986 -32.304,32.963 c -3.01,3.071 -2.96,8.001 0.111,11.011 1.516,1.485 3.483,2.226 5.45,2.226 2.019,0 4.037,-0.78 5.562,-2.337 l 32.304,-32.963 c 3.01,-3.071 2.96,-8.001 -0.111,-11.012 -3.072,-3.009 -8.003,-2.959 -11.012,0.112 z"
     id="path895"
     style="fill:#abc837;fill-opacity:1;stroke:#a7cf3b;stroke-width:13.47401575;stroke-miterlimit:4;stroke-dasharray:none;stroke-opacity:1"
     inkscape:connector-curvature="0" />
  <path
     d="m 59.742748,224.06586 c -1.609,-3.989 -6.147,-5.917 -10.134,-4.307 -3.988,1.609 -5.917,6.146 -4.307,10.134 l 22.745,56.368 c 1.224,3.033 4.142,4.875 7.223,4.875 0.97,0 1.957,-0.183 2.911,-0.567 3.988003,-1.609 5.917003,-6.147 4.307003,-10.135 z"
     id="path897"
     style="fill:#abc837;fill-opacity:1;stroke:#a7cf3b;stroke-width:13.47401575;stroke-miterlimit:4;stroke-dasharray:none;stroke-opacity:1"
     inkscape:connector-curvature="0" />
  <path
     d="m 21.711748,245.75286 c -3.041,-3.041 -7.971,-3.041 -11.012,0 -3.0409997,3.041 -3.0409997,7.971 0,11.012 l 31.975,31.975 c 1.521,1.521 3.513,2.28 5.506,2.28 1.993,0 3.985,-0.76 5.506,-2.28 3.041,-3.041 3.041,-7.972 0,-11.012 z"
     id="path899"
     style="fill:#abc837;fill-opacity:1;stroke:#a7cf3b;stroke-width:13.47401575;stroke-miterlimit:4;stroke-dasharray:none;stroke-opacity:1"
     inkscape:connector-curvature="0" />
  <path
     d="m 231.03503,96.759643 c -0.011,0 -0.021,0 -0.032,0 -4.286,0 -7.769,3.465997 -7.785,7.755997 l -0.33,83.398 c -0.018,4.3 3.455,7.8 7.755,7.817 0.011,0 0.021,0 0.032,0 4.286,0 7.769,-3.466 7.785,-7.756 l 0.33,-83.398 c 0.018,-4.3 -3.455,-7.799997 -7.755,-7.816997 z"
     id="path901"
     style="fill:#abc837;fill-opacity:1;stroke:#a7cf3b;stroke-width:13.47401575;stroke-miterlimit:4;stroke-dasharray:none;stroke-opacity:1"
     inkscape:connector-curvature="0" />
  <path
     d="m 283.47703,126.99864 c -3.867,-1.887 -8.527,-0.279 -10.412,3.585 l -26.37,54.06 c -1.886,3.865 -0.281,8.526 3.584,10.412 1.1,0.536 2.263,0.79 3.408,0.79 2.884,0 5.655,-1.609 7.004,-4.375 l 26.37,-54.06 c 1.885,-3.864 0.281,-8.526 -3.584,-10.412 z"
     id="path903"
     style="fill:#abc837;fill-opacity:1;stroke:#a7cf3b;stroke-width:13.47401575;stroke-miterlimit:4;stroke-dasharray:none;stroke-opacity:1"
     inkscape:connector-curvature="0" />
  <path
     d="m 318.53303,149.41964 c -3.072,-3.011 -8.002,-2.959 -11.012,0.111 l -32.305,32.963 c -3.01,3.071 -2.96,8.001 0.111,11.011 1.516,1.485 3.483,2.226 5.449,2.226 2.02,0 4.037,-0.781 5.563,-2.336 l 32.305,-32.963 c 3.01,-3.072 2.961,-8.002 -0.111,-11.012 z"
     id="path905"
     style="fill:#abc837;fill-opacity:1;stroke:#a7cf3b;stroke-width:13.47401575;stroke-miterlimit:4;stroke-dasharray:none;stroke-opacity:1"
     inkscape:connector-curvature="0" />
  <path
     d="m 201.23303,190.97164 c 1.224,3.034 4.142,4.875 7.224,4.875 0.97,0 1.956,-0.183 2.911,-0.568 3.987,-1.609 5.916,-6.146 4.307,-10.134 l -22.745,-56.368 c -1.609,-3.988 -6.145,-5.917 -10.135,-4.307 -3.987,1.609 -5.916,6.146 -4.307,10.134 z"
     id="path907"
     style="fill:#abc837;fill-opacity:1;stroke:#a7cf3b;stroke-width:13.47401575;stroke-miterlimit:4;stroke-dasharray:none;stroke-opacity:1"
     inkscape:connector-curvature="0" />
  <path
     d="m 181.36603,195.73064 c 1.993,0 3.985,-0.76 5.506,-2.281 3.041,-3.041 3.041,-7.971 0,-11.012 l -31.975,-31.975 c -3.041,-3.041 -7.971,-3.041 -11.012,0 -3.041,3.041 -3.041,7.971 0,11.012 l 31.975,31.975 c 1.521,1.521 3.513,2.281 5.506,2.281 z"
     id="path909"
     style="fill:#abc837;fill-opacity:1;stroke:#a7cf3b;stroke-width:13.47401575;stroke-miterlimit:4;stroke-dasharray:none;stroke-opacity:1"
     inkscape:connector-curvature="0" />
  <path
     d="m 231.70069,287.31947 c -0.01,0 -0.021,-0.001 -0.031,-0.001 -4.286,0 -7.769,3.467 -7.786,7.756 l -0.33,83.398 c -0.017,4.301 3.456,7.801 7.756,7.817 0.01,0 0.021,0.001 0.031,0.001 4.287,0 7.769,-3.467 7.786,-7.756 l 0.33,-83.398 c 0.017,-4.301 -3.455,-7.801 -7.756,-7.817 z"
     id="path911"
     style="fill:#abc837;fill-opacity:1;stroke:#a7cf3b;stroke-width:13.47401575;stroke-miterlimit:4;stroke-dasharray:none;stroke-opacity:1"
     inkscape:connector-curvature="0" />
  <path
     d="m 284.14369,317.55847 c -3.868,-1.886 -8.528,-0.28 -10.412,3.584 l -26.37,54.06 c -1.886,3.865 -0.281,8.527 3.584,10.412 1.1,0.536 2.263,0.79 3.408,0.79 2.884,0 5.655,-1.608 7.004,-4.374 l 26.37,-54.06 c 1.885,-3.865 0.281,-8.527 -3.584,-10.412 z"
     id="path913"
     style="fill:#abc837;fill-opacity:1;stroke:#a7cf3b;stroke-width:13.47401575;stroke-miterlimit:4;stroke-dasharray:none;stroke-opacity:1"
     inkscape:connector-curvature="0" />
  <path
     d="m 308.18869,340.08947 -32.305,32.964 c -3.01,3.071 -2.96,8.002 0.111,11.012 1.516,1.485 3.483,2.226 5.449,2.226 2.02,0 4.037,-0.781 5.563,-2.337 l 32.305,-32.964 c 3.01,-3.071 2.96,-8.002 -0.111,-11.012 -3.073,-3.011 -8.003,-2.959 -11.012,0.111 z"
     id="path915"
     style="fill:#abc837;fill-opacity:1;stroke:#a7cf3b;stroke-width:13.47401575;stroke-miterlimit:4;stroke-dasharray:none;stroke-opacity:1"
     inkscape:connector-curvature="0" />
  <path
     d="m 193.59569,319.33447 c -1.609,-3.988 -6.147,-5.918 -10.134,-4.307 -3.988,1.609 -5.917,6.146 -4.307,10.135 l 22.745,56.367 c 1.224,3.033 4.142,4.875 7.223,4.875 0.97,0 1.957,-0.183 2.911,-0.568 3.988,-1.609 5.917,-6.146 4.307,-10.135 z"
     id="path917"
     style="fill:#abc837;fill-opacity:1;stroke:#a7cf3b;stroke-width:13.47401575;stroke-miterlimit:4;stroke-dasharray:none;stroke-opacity:1"
     inkscape:connector-curvature="0" />
  <path
     d="m 155.56469,341.02247 c -3.041,-3.041 -7.972,-3.042 -11.012,0 -3.041,3.041 -3.041,7.971 0,11.012 l 31.975,31.976 c 1.521,1.521 3.513,2.281 5.506,2.281 1.993,0 3.986,-0.761 5.506,-2.281 3.041,-3.041 3.041,-7.971 0,-11.012 z"
     id="path919"
     style="fill:#abc837;fill-opacity:1;stroke:#a7cf3b;stroke-width:13.47401575;stroke-miterlimit:4;stroke-dasharray:none;stroke-opacity:1"
     inkscape:connector-curvature="0" />
  <path
     inkscape:connector-curvature="0"
     d="m 107.83539,371.24083 c -0.01,0 -0.021,0 -0.031,0 -4.286,0 -7.769,3.466 -7.786,7.756 l -0.330002,83.398 c -0.017,4.3 3.456002,7.801 7.756002,7.817 0.01,0 0.021,0 0.031,0 4.286,0 7.769,-3.466 7.786,-7.756 l 0.33,-83.398 c 0.017,-4.3 -3.455,-7.8 -7.756,-7.817 z"
     id="path891-3"
     style="fill:#abc837;fill-opacity:1;stroke:#a7cf3b;stroke-width:13.47401575;stroke-miterlimit:4;stroke-dasharray:none;stroke-opacity:1" />
  <path
     inkscape:connector-curvature="0"
     d="m 127.07938,469.53683 c 1.099,0.536 2.263,0.79 3.408,0.79 2.884,0 5.655,-1.608 7.004,-4.375 l 26.371,-54.06 c 1.885,-3.865 0.28,-8.527 -3.584,-10.413 -3.866,-1.886 -8.527,-0.28 -10.413,3.584 l -26.37099,54.06 c -1.885,3.867 -0.28,8.529 3.58499,10.414 z"
     id="path893-6"
     style="fill:#abc837;fill-opacity:1;stroke:#a7cf3b;stroke-width:13.47401575;stroke-miterlimit:4;stroke-dasharray:none;stroke-opacity:1" />
  <path
     inkscape:connector-curvature="0"
     d="m 184.32338,424.01183 -32.304,32.963 c -3.01,3.071 -2.96,8.001 0.111,11.011 1.516,1.485 3.483,2.226 5.45,2.226 2.019,0 4.037,-0.78 5.562,-2.337 l 32.304,-32.963 c 3.01,-3.071 2.96,-8.001 -0.111,-11.012 -3.072,-3.009 -8.003,-2.959 -11.012,0.112 z"
     id="path895-7"
     style="fill:#abc837;fill-opacity:1;stroke:#a7cf3b;stroke-width:13.47401575;stroke-miterlimit:4;stroke-dasharray:none;stroke-opacity:1" />
  <path
     inkscape:connector-curvature="0"
     d="m 69.730383,403.25783 c -1.609,-3.989 -6.147,-5.917 -10.134,-4.307 -3.988,1.609 -5.917,6.146 -4.307,10.134 l 22.745,56.368 c 1.224,3.033 4.142005,4.875 7.223005,4.875 0.97,0 1.957,-0.183 2.911,-0.567 3.988,-1.609 5.917,-6.147 4.307,-10.135 z"
     id="path897-5"
     style="fill:#abc837;fill-opacity:1;stroke:#a7cf3b;stroke-width:13.47401575;stroke-miterlimit:4;stroke-dasharray:none;stroke-opacity:1" />
  <path
     inkscape:connector-curvature="0"
     d="m 31.699383,424.94483 c -3.041,-3.041 -7.971,-3.041 -11.012002,0 -3.041,3.041 -3.041,7.971 0,11.012 l 31.975002,31.975 c 1.521,1.521 3.513,2.28 5.506,2.28 1.993,0 3.985,-0.76 5.506,-2.28 3.041,-3.041 3.041,-7.972 0,-11.012 z"
     id="path899-3"
     style="fill:#abc837;fill-opacity:1;stroke:#a7cf3b;stroke-width:13.47401575;stroke-miterlimit:4;stroke-dasharray:none;stroke-opacity:1" />
  <path
     inkscape:connector-curvature="0"
     d="m 93.619701,6.6084788 c -0.01,0 -0.021,0 -0.031,0 -4.286,0 -7.769,3.4660002 -7.786,7.7560002 l -0.33,83.398004 c -0.017,4.299997 3.456,7.800997 7.756,7.816997 0.01,0 0.021,0 0.031,0 4.286,0 7.768999,-3.466 7.785999,-7.755997 l 0.33,-83.398004 c 0.017,-4.3 -3.454999,-7.8000002 -7.755999,-7.8170002 z"
     id="path891-5"
     style="fill:#abc837;fill-opacity:1;stroke:#a7cf3b;stroke-width:13.47401575;stroke-miterlimit:4;stroke-dasharray:none;stroke-opacity:1" />
  <path
     inkscape:connector-curvature="0"
     d="m 112.8637,104.90448 c 1.099,0.536 2.263,0.79 3.408,0.79 2.884,0 5.655,-1.608 7.004,-4.375 l 26.371,-54.060001 c 1.885,-3.865 0.28,-8.527 -3.584,-10.413 -3.866,-1.886 -8.527,-0.28 -10.413,3.584 l -26.371,54.060004 c -1.885,3.867 -0.28,8.528997 3.585,10.413997 z"
     id="path893-62"
     style="fill:#abc837;fill-opacity:1;stroke:#a7cf3b;stroke-width:13.47401575;stroke-miterlimit:4;stroke-dasharray:none;stroke-opacity:1" />
  <path
     inkscape:connector-curvature="0"
     d="m 170.1077,59.379479 -32.304,32.963004 c -3.01,3.071 -2.96,8.000997 0.111,11.010997 1.516,1.485 3.483,2.226 5.45,2.226 2.019,0 4.037,-0.78 5.562,-2.337 l 32.304,-32.963001 c 3.01,-3.071 2.96,-8.001 -0.111,-11.012 -3.072,-3.009 -8.003,-2.959 -11.012,0.112 z"
     id="path895-9"
     style="fill:#abc837;fill-opacity:1;stroke:#a7cf3b;stroke-width:13.47401575;stroke-miterlimit:4;stroke-dasharray:none;stroke-opacity:1" />
  <path
     inkscape:connector-curvature="0"
     d="m 55.514698,38.625479 c -1.609,-3.989 -6.147,-5.917 -10.134,-4.307 -3.988,1.609 -5.917,6.146 -4.307,10.134 l 22.745,56.368001 c 1.224,3.033 4.142,4.875 7.223,4.875 0.97,0 1.957,-0.183 2.911,-0.567 3.988,-1.609 5.917003,-6.146997 4.307,-10.134997 z"
     id="path897-1"
     style="fill:#abc837;fill-opacity:1;stroke:#a7cf3b;stroke-width:13.47401575;stroke-miterlimit:4;stroke-dasharray:none;stroke-opacity:1" />
  <path
     inkscape:connector-curvature="0"
     d="m 17.483698,60.312479 c -3.041,-3.041 -7.9710017,-3.041 -11.0120017,0 -3.041,3.041 -3.041,7.971 0,11.012 L 38.446698,103.29948 c 1.521,1.521 3.513,2.28 5.506,2.28 1.993,0 3.985,-0.76 5.506,-2.28 3.041,-3.041 3.041,-7.971997 0,-11.011997 z"
     id="path899-2"
     style="fill:#abc837;fill-opacity:1;stroke:#a7cf3b;stroke-width:13.47401575;stroke-miterlimit:4;stroke-dasharray:none;stroke-opacity:1" />
  <path
     d="m 372.9598,191.41239 c -0.011,0 -0.021,0 -0.032,0 -4.286,0 -7.769,3.46601 -7.785,7.75601 l -0.33,83.398 c -0.018,4.3 3.455,7.79999 7.755,7.81699 0.011,0 0.021,0 0.032,0 4.286,0 7.769,-3.46599 7.785,-7.75599 l 0.33,-83.398 c 0.018,-4.3 -3.455,-7.80001 -7.755,-7.81701 z"
     id="path901-7"
     style="fill:#abc837;fill-opacity:1;stroke:#a7cf3b;stroke-width:13.47401575;stroke-miterlimit:4;stroke-dasharray:none;stroke-opacity:1"
     inkscape:connector-curvature="0" />
  <path
     d="m 425.4018,221.6514 c -3.867,-1.887 -8.527,-0.279 -10.412,3.585 l -26.37,54.06 c -1.886,3.865 -0.281,8.526 3.584,10.41199 1.1,0.536 2.263,0.79 3.408,0.79 2.884,0 5.655,-1.609 7.004,-4.37499 l 26.37,-54.06 c 1.885,-3.864 0.281,-8.526 -3.584,-10.412 z"
     id="path903-0"
     style="fill:#abc837;fill-opacity:1;stroke:#a7cf3b;stroke-width:13.47401575;stroke-miterlimit:4;stroke-dasharray:none;stroke-opacity:1"
     inkscape:connector-curvature="0" />
  <path
     d="m 460.4578,244.0724 c -3.072,-3.011 -8.002,-2.959 -11.012,0.111 l -32.305,32.963 c -3.01,3.071 -2.96,8.001 0.111,11.01099 1.516,1.485 3.483,2.226 5.449,2.226 2.02,0 4.037,-0.781 5.563,-2.336 l 32.305,-32.96299 c 3.01,-3.072 2.961,-8.002 -0.111,-11.012 z"
     id="path905-9"
     style="fill:#abc837;fill-opacity:1;stroke:#a7cf3b;stroke-width:13.47401575;stroke-miterlimit:4;stroke-dasharray:none;stroke-opacity:1"
     inkscape:connector-curvature="0" />
  <path
     d="m 343.1578,285.6244 c 1.224,3.03399 4.142,4.87499 7.224,4.87499 0.97,0 1.956,-0.183 2.911,-0.568 3.987,-1.609 5.916,-6.14599 4.307,-10.13399 l -22.745,-56.368 c -1.609,-3.988 -6.145,-5.917 -10.135,-4.307 -3.987,1.609 -5.916,6.146 -4.307,10.134 z"
     id="path907-3"
     style="fill:#abc837;fill-opacity:1;stroke:#a7cf3b;stroke-width:13.47401575;stroke-miterlimit:4;stroke-dasharray:none;stroke-opacity:1"
     inkscape:connector-curvature="0" />
  <path
     d="m 323.2908,290.38339 c 1.993,0 3.985,-0.76 5.506,-2.281 3.041,-3.04099 3.041,-7.97099 0,-11.01199 l -31.975,-31.975 c -3.041,-3.041 -7.971,-3.041 -11.012,0 -3.041,3.041 -3.041,7.971 0,11.012 l 31.975,31.97499 c 1.521,1.521 3.513,2.281 5.506,2.281 z"
     id="path909-6"
     style="fill:#abc837;fill-opacity:1;stroke:#a7cf3b;stroke-width:13.47401575;stroke-miterlimit:4;stroke-dasharray:none;stroke-opacity:1"
     inkscape:connector-curvature="0" />
  <path
     d="m 378.64607,3.7653412 c -0.011,0 -0.021,0 -0.032,0 -4.286,0 -7.769,3.466004 -7.785,7.7560048 l -0.33,83.397998 c -0.018,4.299997 3.455,7.799996 7.755,7.816996 0.011,0 0.021,0 0.032,0 4.286,0 7.769,-3.465999 7.785,-7.755996 l 0.33,-83.397998 c 0.018,-4.3000008 -3.455,-7.8000048 -7.755,-7.8170048 z"
     id="path901-0"
     style="fill:#abc837;fill-opacity:1;stroke:#a7cf3b;stroke-width:13.47401575;stroke-miterlimit:4;stroke-dasharray:none;stroke-opacity:1"
     inkscape:connector-curvature="0" />
  <path
     d="m 431.08807,34.004341 c -3.867,-1.887 -8.527,-0.279 -10.412,3.585 l -26.37,54.060003 c -1.886,3.865 -0.281,8.525996 3.584,10.411996 1.1,0.536 2.263,0.79 3.408,0.79 2.884,0 5.655,-1.609 7.004,-4.374996 l 26.37,-54.060003 c 1.885,-3.864 0.281,-8.526 -3.584,-10.412 z"
     id="path903-6"
     style="fill:#abc837;fill-opacity:1;stroke:#a7cf3b;stroke-width:13.47401575;stroke-miterlimit:4;stroke-dasharray:none;stroke-opacity:1"
     inkscape:connector-curvature="0" />
  <path
     d="m 466.14407,56.425341 c -3.072,-3.011 -8.002,-2.959 -11.012,0.111 l -32.305,32.963 c -3.01,3.071003 -2.96,8.001003 0.111,11.010999 1.516,1.485 3.483,2.226 5.449,2.226 2.02,0 4.037,-0.781 5.563,-2.336 l 32.305,-32.962999 c 3.01,-3.072 2.961,-8.002 -0.111,-11.012 z"
     id="path905-2"
     style="fill:#abc837;fill-opacity:1;stroke:#a7cf3b;stroke-width:13.47401575;stroke-miterlimit:4;stroke-dasharray:none;stroke-opacity:1"
     inkscape:connector-curvature="0" />
  <path
     d="m 348.84407,97.977344 c 1.224,3.033996 4.142,4.874996 7.224,4.874996 0.97,0 1.956,-0.183 2.911,-0.568 3.987,-1.609 5.916,-6.145996 4.307,-10.133996 l -22.745,-56.368003 c -1.609,-3.988 -6.145,-5.917 -10.135,-4.307 -3.987,1.609 -5.916,6.146 -4.307,10.134 z"
     id="path907-6"
     style="fill:#abc837;fill-opacity:1;stroke:#a7cf3b;stroke-width:13.47401575;stroke-miterlimit:4;stroke-dasharray:none;stroke-opacity:1"
     inkscape:connector-curvature="0" />
  <path
     d="m 328.97707,102.73634 c 1.993,0 3.985,-0.76 5.506,-2.281 3.041,-3.040996 3.041,-7.970996 0,-11.011999 l -31.975,-31.975 c -3.041,-3.041 -7.971,-3.041 -11.012,0 -3.041,3.041 -3.041,7.971 0,11.012 l 31.975,31.974999 c 1.521,1.521 3.513,2.281 5.506,2.281 z"
     id="path909-1"
     style="fill:#abc837;fill-opacity:1;stroke:#a7cf3b;stroke-width:13.47401575;stroke-miterlimit:4;stroke-dasharray:none;stroke-opacity:1"
     inkscape:connector-curvature="0" />
  <path
     d="m 366.56274,371.9516 c -0.011,0 -0.021,0 -0.032,0 -4.286,0 -7.769,3.46601 -7.785,7.75601 l -0.33,83.398 c -0.018,4.3 3.455,7.79999 7.755,7.81699 0.011,0 0.021,0 0.032,0 4.286,0 7.769,-3.46599 7.785,-7.75599 l 0.33,-83.398 c 0.018,-4.3 -3.455,-7.80001 -7.755,-7.81701 z"
     id="path901-8"
     style="fill:#abc837;fill-opacity:1;stroke:#a7cf3b;stroke-width:13.47401575;stroke-miterlimit:4;stroke-dasharray:none;stroke-opacity:1"
     inkscape:connector-curvature="0" />
  <path
     d="m 419.00474,402.19061 c -3.867,-1.887 -8.527,-0.279 -10.412,3.585 l -26.37,54.06 c -1.886,3.865 -0.281,8.526 3.584,10.41199 1.1,0.536 2.263,0.79 3.408,0.79 2.884,0 5.655,-1.609 7.004,-4.37499 l 26.37,-54.06 c 1.885,-3.864 0.281,-8.526 -3.584,-10.412 z"
     id="path903-7"
     style="fill:#abc837;fill-opacity:1;stroke:#a7cf3b;stroke-width:13.47401575;stroke-miterlimit:4;stroke-dasharray:none;stroke-opacity:1"
     inkscape:connector-curvature="0" />
  <path
     d="m 454.06074,424.61161 c -3.072,-3.011 -8.002,-2.959 -11.012,0.111 l -32.305,32.963 c -3.01,3.071 -2.96,8.001 0.111,11.01099 1.516,1.485 3.483,2.226 5.449,2.226 2.02,0 4.037,-0.781 5.563,-2.336 l 32.305,-32.96299 c 3.01,-3.072 2.961,-8.002 -0.111,-11.012 z"
     id="path905-92"
     style="fill:#abc837;fill-opacity:1;stroke:#a7cf3b;stroke-width:13.47401575;stroke-miterlimit:4;stroke-dasharray:none;stroke-opacity:1"
     inkscape:connector-curvature="0" />
  <path
     d="m 336.76074,466.16361 c 1.224,3.03399 4.142,4.87499 7.224,4.87499 0.97,0 1.956,-0.183 2.911,-0.568 3.987,-1.609 5.916,-6.14599 4.307,-10.13399 l -22.745,-56.368 c -1.609,-3.988 -6.145,-5.917 -10.135,-4.307 -3.987,1.609 -5.916,6.146 -4.307,10.134 z"
     id="path907-0"
     style="fill:#abc837;fill-opacity:1;stroke:#a7cf3b;stroke-width:13.47401575;stroke-miterlimit:4;stroke-dasharray:none;stroke-opacity:1"
     inkscape:connector-curvature="0" />
  <path
     d="m 316.89374,470.9226 c 1.993,0 3.985,-0.76 5.506,-2.281 3.041,-3.04099 3.041,-7.97099 0,-11.01199 l -31.975,-31.975 c -3.041,-3.041 -7.971,-3.041 -11.012,0 -3.041,3.041 -3.041,7.971 0,11.012 l 31.975,31.97499 c 1.521,1.521 3.513,2.281 5.506,2.281 z"
     id="path909-2"
     style="fill:#abc837;fill-opacity:1;stroke:#a7cf3b;stroke-width:13.47401575;stroke-miterlimit:4;stroke-dasharray:none;stroke-opacity:1"
     inkscape:connector-curvature="0" />
  <path
     d="m 481.70979,98.299652 c -0.011,0 -0.021,0 -0.032,0 -4.286,0 -7.769,3.466008 -7.785,7.756008 l -0.33,83.398 c -0.018,4.3 3.455,7.8 7.755,7.817 0.011,0 0.021,0 0.032,0 4.286,0 7.76901,-3.466 7.78501,-7.756 l 0.33,-83.398 c 0.018,-4.3 -3.45501,-7.800008 -7.75501,-7.817008 z"
     id="path901-0-3"
     style="fill:#abc837;fill-opacity:1;stroke:#a7cf3b;stroke-width:13.47401575;stroke-miterlimit:4;stroke-dasharray:none;stroke-opacity:1"
     inkscape:connector-curvature="0" />
  <path
     d="m 534.1518,128.53865 c -3.867,-1.887 -8.527,-0.279 -10.412,3.585 l -26.37,54.06001 c -1.886,3.865 -0.281,8.526 3.584,10.412 1.1,0.536 2.263,0.79 3.408,0.79 2.884,0 5.655,-1.609 7.004,-4.375 l 26.37,-54.06001 c 1.885,-3.864 0.281,-8.526 -3.584,-10.412 z"
     id="path903-6-7"
     style="fill:#abc837;fill-opacity:1;stroke:#a7cf3b;stroke-width:13.47401575;stroke-miterlimit:4;stroke-dasharray:none;stroke-opacity:1"
     inkscape:connector-curvature="0" />
  <path
     d="m 569.2078,150.95966 c -3.072,-3.011 -8.002,-2.959 -11.012,0.111 l -32.305,32.963 c -3.01,3.071 -2.96,8.001 0.111,11.011 1.516,1.485 3.483,2.226 5.449,2.226 2.02,0 4.037,-0.781 5.563,-2.336 l 32.305,-32.963 c 3.01,-3.072 2.961,-8.002 -0.111,-11.012 z"
     id="path905-2-5"
     style="fill:#abc837;fill-opacity:1;stroke:#a7cf3b;stroke-width:13.47401575;stroke-miterlimit:4;stroke-dasharray:none;stroke-opacity:1"
     inkscape:connector-curvature="0" />
  <path
     d="m 451.90779,192.51166 c 1.224,3.034 4.142,4.875 7.224,4.875 0.97,0 1.956,-0.183 2.911,-0.568 3.987,-1.609 5.916,-6.146 4.307,-10.134 l -22.745,-56.36801 c -1.609,-3.988 -6.145,-5.917 -10.135,-4.307 -3.987,1.609 -5.916,6.146 -4.307,10.134 z"
     id="path907-6-9"
     style="fill:#abc837;fill-opacity:1;stroke:#a7cf3b;stroke-width:13.47401575;stroke-miterlimit:4;stroke-dasharray:none;stroke-opacity:1"
     inkscape:connector-curvature="0" />
  <path
     d="m 432.04079,197.27066 c 1.993,0 3.985,-0.76 5.506,-2.281 3.041,-3.041 3.041,-7.971 0,-11.012 l -31.975,-31.975 c -3.041,-3.041 -7.971,-3.041 -11.012,0 -3.041,3.041 -3.041,7.971 0,11.012 l 31.975,31.975 c 1.521,1.521 3.513,2.281 5.506,2.281 z"
     id="path909-1-2"
     style="fill:#abc837;fill-opacity:1;stroke:#a7cf3b;stroke-width:13.47401575;stroke-miterlimit:4;stroke-dasharray:none;stroke-opacity:1"
     inkscape:connector-curvature="0" />
  <path
     d="m 483.13137,276.70651 c -0.011,0 -0.021,0 -0.032,0 -4.286,0 -7.769,3.466 -7.785,7.75601 l -0.33,83.39799 c -0.018,4.3 3.455,7.8 7.755,7.817 0.011,0 0.021,0 0.032,0 4.286,0 7.769,-3.466 7.785,-7.756 l 0.33,-83.39799 c 0.018,-4.30001 -3.455,-7.80001 -7.755,-7.81701 z"
     id="path901-0-2"
     style="fill:#abc837;fill-opacity:1;stroke:#a7cf3b;stroke-width:13.47401575;stroke-miterlimit:4;stroke-dasharray:none;stroke-opacity:1"
     inkscape:connector-curvature="0" />
  <path
     d="m 535.57337,306.94551 c -3.867,-1.887 -8.527,-0.279 -10.412,3.585 l -26.37,54.06 c -1.886,3.865 -0.281,8.526 3.584,10.412 1.1,0.536 2.263,0.79 3.408,0.79 2.884,0 5.655,-1.609 7.004,-4.375 l 26.37,-54.06 c 1.885,-3.864 0.281,-8.526 -3.584,-10.412 z"
     id="path903-6-8"
     style="fill:#abc837;fill-opacity:1;stroke:#a7cf3b;stroke-width:13.47401575;stroke-miterlimit:4;stroke-dasharray:none;stroke-opacity:1"
     inkscape:connector-curvature="0" />
  <path
     d="m 570.62937,329.36651 c -3.072,-3.011 -8.002,-2.959 -11.012,0.111 l -32.305,32.963 c -3.01,3.071 -2.96,8.001 0.111,11.011 1.516,1.485 3.483,2.226 5.449,2.226 2.02,0 4.037,-0.781 5.563,-2.336 l 32.305,-32.963 c 3.01,-3.072 2.961,-8.002 -0.111,-11.012 z"
     id="path905-2-9"
     style="fill:#abc837;fill-opacity:1;stroke:#a7cf3b;stroke-width:13.47401575;stroke-miterlimit:4;stroke-dasharray:none;stroke-opacity:1"
     inkscape:connector-curvature="0" />
  <path
     d="m 453.32937,370.91851 c 1.224,3.034 4.142,4.875 7.224,4.875 0.97,0 1.956,-0.183 2.911,-0.568 3.987,-1.609 5.916,-6.146 4.307,-10.134 l -22.745,-56.368 c -1.609,-3.988 -6.145,-5.917 -10.135,-4.307 -3.987,1.609 -5.916,6.146 -4.307,10.134 z"
     id="path907-6-7"
     style="fill:#abc837;fill-opacity:1;stroke:#a7cf3b;stroke-width:13.47401575;stroke-miterlimit:4;stroke-dasharray:none;stroke-opacity:1"
     inkscape:connector-curvature="0" />
  <path
     d="m 433.46237,375.67751 c 1.993,0 3.985,-0.76 5.506,-2.281 3.041,-3.041 3.041,-7.971 0,-11.012 l -31.975,-31.975 c -3.041,-3.041 -7.971,-3.041 -11.012,0 -3.041,3.041 -3.041,7.971 0,11.012 l 31.975,31.975 c 1.521,1.521 3.513,2.281 5.506,2.281 z"
     id="path909-1-3"
     style="fill:#abc837;fill-opacity:1;stroke:#a7cf3b;stroke-width:13.47401575;stroke-miterlimit:4;stroke-dasharray:none;stroke-opacity:1"
     inkscape:connector-curvature="0" />
  <path
     inkscape:connector-curvature="0"
     d="m 237.90892,465.06434 c -0.01,0 -0.021,0 -0.031,0 -4.286,0 -7.769,3.466 -7.786,7.756 l -0.33,83.398 c -0.017,4.3 3.456,7.801 7.756,7.817 0.01,0 0.021,0 0.031,0 4.286,0 7.769,-3.466 7.786,-7.756 l 0.33,-83.398 c 0.017,-4.3 -3.455,-7.8 -7.756,-7.817 z"
     id="path891-3-6"
     style="fill:#abc837;fill-opacity:1;stroke:#a7cf3b;stroke-width:13.47401575;stroke-miterlimit:4;stroke-dasharray:none;stroke-opacity:1" />
  <path
     inkscape:connector-curvature="0"
     d="m 257.15291,563.36034 c 1.099,0.536 2.263,0.79 3.408,0.79 2.884,0 5.655,-1.608 7.004,-4.375 l 26.371,-54.06 c 1.885,-3.865 0.28,-8.527 -3.584,-10.413 -3.866,-1.886 -8.527,-0.28 -10.413,3.584 l -26.37099,54.06 c -1.885,3.867 -0.28,8.529 3.58499,10.414 z"
     id="path893-6-1"
     style="fill:#abc837;fill-opacity:1;stroke:#a7cf3b;stroke-width:13.47401575;stroke-miterlimit:4;stroke-dasharray:none;stroke-opacity:1" />
  <path
     inkscape:connector-curvature="0"
     d="m 314.39691,517.83534 -32.304,32.963 c -3.01,3.071 -2.96,8.001 0.111,11.011 1.516,1.485 3.483,2.226 5.45,2.226 2.019,0 4.037,-0.78 5.562,-2.337 l 32.304,-32.963 c 3.01,-3.071 2.96,-8.001 -0.111,-11.012 -3.072,-3.009 -8.003,-2.959 -11.012,0.112 z"
     id="path895-7-2"
     style="fill:#abc837;fill-opacity:1;stroke:#a7cf3b;stroke-width:13.47401575;stroke-miterlimit:4;stroke-dasharray:none;stroke-opacity:1" />
  <path
     inkscape:connector-curvature="0"
     d="m 199.80391,497.08134 c -1.609,-3.989 -6.147,-5.917 -10.134,-4.307 -3.988,1.609 -5.917,6.146 -4.307,10.134 l 22.745,56.368 c 1.224,3.033 4.14201,4.875 7.22301,4.875 0.97,0 1.957,-0.183 2.911,-0.567 3.988,-1.609 5.917,-6.147 4.307,-10.135 z"
     id="path897-5-9"
     style="fill:#abc837;fill-opacity:1;stroke:#a7cf3b;stroke-width:13.47401575;stroke-miterlimit:4;stroke-dasharray:none;stroke-opacity:1" />
  <path
     inkscape:connector-curvature="0"
     d="m 161.77291,518.76834 c -3.041,-3.041 -7.971,-3.041 -11.012,0 -3.041,3.041 -3.041,7.971 0,11.012 l 31.975,31.975 c 1.521,1.521 3.513,2.28 5.506,2.28 1.993,0 3.985,-0.76 5.506,-2.28 3.041,-3.041 3.041,-7.972 0,-11.012 z"
     id="path899-3-3"
     style="fill:#abc837;fill-opacity:1;stroke:#a7cf3b;stroke-width:13.47401575;stroke-miterlimit:4;stroke-dasharray:none;stroke-opacity:1" />
  <path
     inkscape:connector-curvature="0"
     d="m 482.41871,467.19669 c -0.01,0 -0.021,0 -0.031,0 -4.286,0 -7.769,3.466 -7.786,7.756 l -0.33,83.398 c -0.017,4.3 3.456,7.801 7.756,7.817 0.01,0 0.021,0 0.031,0 4.286,0 7.76901,-3.466 7.78601,-7.756 l 0.33,-83.398 c 0.017,-4.3 -3.45501,-7.8 -7.75601,-7.817 z"
     id="path891-3-1"
     style="fill:#abc837;fill-opacity:1;stroke:#a7cf3b;stroke-width:13.47401575;stroke-miterlimit:4;stroke-dasharray:none;stroke-opacity:1" />
  <path
     inkscape:connector-curvature="0"
     d="m 501.66271,565.49269 c 1.099,0.536 2.263,0.79 3.408,0.79 2.884,0 5.655,-1.608 7.004,-4.375 l 26.371,-54.06 c 1.885,-3.865 0.28,-8.527 -3.584,-10.413 -3.866,-1.886 -8.527,-0.28 -10.413,3.584 l -26.37099,54.06 c -1.885,3.867 -0.28,8.529 3.58499,10.414 z"
     id="path893-6-9"
     style="fill:#abc837;fill-opacity:1;stroke:#a7cf3b;stroke-width:13.47401575;stroke-miterlimit:4;stroke-dasharray:none;stroke-opacity:1" />
  <path
     inkscape:connector-curvature="0"
     d="m 558.90671,519.96769 -32.304,32.963 c -3.01,3.071 -2.96,8.001 0.111,11.011 1.516,1.485 3.483,2.226 5.45,2.226 2.019,0 4.037,-0.78 5.562,-2.337 l 32.304,-32.963 c 3.01,-3.071 2.96,-8.001 -0.111,-11.012 -3.072,-3.009 -8.003,-2.959 -11.012,0.112 z"
     id="path895-7-4"
     style="fill:#abc837;fill-opacity:1;stroke:#a7cf3b;stroke-width:13.47401575;stroke-miterlimit:4;stroke-dasharray:none;stroke-opacity:1" />
  <path
     inkscape:connector-curvature="0"
     d="m 444.31371,499.21369 c -1.609,-3.989 -6.147,-5.917 -10.134,-4.307 -3.988,1.609 -5.917,6.146 -4.307,10.134 l 22.745,56.368 c 1.224,3.033 4.142,4.875 7.223,4.875 0.97,0 1.957,-0.183 2.911,-0.567 3.988,-1.609 5.917,-6.147 4.307,-10.135 z"
     id="path897-5-7"
     style="fill:#abc837;fill-opacity:1;stroke:#a7cf3b;stroke-width:13.47401575;stroke-miterlimit:4;stroke-dasharray:none;stroke-opacity:1" />
  <path
     inkscape:connector-curvature="0"
     d="m 406.28271,520.90069 c -3.041,-3.041 -7.971,-3.041 -11.012,0 -3.04101,3.041 -3.04101,7.971 0,11.012 l 31.975,31.975 c 1.521,1.521 3.513,2.28 5.506,2.28 1.993,0 3.985,-0.76 5.506,-2.28 3.041,-3.041 3.041,-7.972 0,-11.012 z"
     id="path899-3-8"
     style="fill:#abc837;fill-opacity:1;stroke:#a7cf3b;stroke-width:13.47401575;stroke-miterlimit:4;stroke-dasharray:none;stroke-opacity:1" />
</svg>
